# xmcd CD database file
#
# Track frame offsets:
#	182
#	12885
#	24725
#	42877
#	75825
#	98707
#	114402
#	135007
#	150157
#	169637
#	181492
#	192182
#	206640
#
# Disc length: 2908 seconds
#
# Revision: 1
# Processed by: cddbd v1.4PL0 Copyright (c) Steve Scherf et al.
# Submitted via: CDex 1.50beta9
#
DISCID=8b0b5a0d
DTITLE=Erroll Garner - The Original Misty
DYEAR=1988
DGENRE=Jazz
TTITLE0=Misty
TTITLE1=Rosalie
TTITLE2=I've Got the World on a String
TTITLE3=7-11 Jump
TTITLE4=Don't Worry 'Bout Me
TTITLE5=You Are My Sunshine
TTITLE6=Part Time Blues
TTITLE7=All of a Sudden
TTITLE8=In a Mellow Tone
TTITLE9=There's a Small Hotel
TTITLE10=I Wanna Be a Rug Cutter
TTITLE11=Exactly Like You
TTITLE12=Oh, Lady Be Good
EXTD=YEAR: 1988
EXTT0=
EXTT1=
EXTT2=
EXTT3=
EXTT4=
EXTT5=
EXTT6=
EXTT7=
EXTT8=
EXTT9=
EXTT10=
EXTT11=
EXTT12=
PLAYORDER=
